<?xml version="1.0" ?><svg viewBox="0 0 96 96" xmlns="http://www.w3.org/2000/svg"><defs><style>.cls-1{fill:#2ad3c0;}</style></defs><title/><g data-name="Your Icons" id="Your_Icons"><path class="cls-1" d="M56.81,52a7.52,7.52,0,0,1-4.12-3.68l-.25-.49.3-.45a7.53,7.53,0,0,1,4.5-3.21c4-1,6.62-2.42,7.79-4.21A9.66,9.66,0,0,0,48.86,29.36c-1.18,1.79-1.42,4.76-.73,8.82A7.49,7.49,0,0,1,47,43.59l-.29.46-.54,0a7.57,7.57,0,0,1-5-2.3c-2.86-3-5.4-4.52-7.53-4.64a9.66,9.66,0,0,0-1.06,19.29c2.11.12,4.82-1.15,8-3.78a7.54,7.54,0,0,1,5.26-1.73l.54,0,.25.48a7.63,7.63,0,0,1,.53,5.51c-1.14,4-1.22,6.93-.25,8.84A9.66,9.66,0,1,0,64.09,57C63.12,55.09,60.67,53.39,56.81,52Zm2.12,16.23a7.67,7.67,0,0,1-10.29-3.37c-.72-1.43-.59-4,.39-7.39a9.55,9.55,0,0,0-.67-7L47.59,49l-1.69-.09-.53,0a9.53,9.53,0,0,0-6.11,2.21c-2.73,2.26-5,3.41-6.61,3.32a7.66,7.66,0,0,1,.84-15.29c1.59.09,3.74,1.48,6.2,4A9.55,9.55,0,0,0,46.06,46l1.69.1.93-1.42a9.57,9.57,0,0,0,1.42-6.85c-.59-3.5-.44-6.05.43-7.39a7.68,7.68,0,0,1,10.6-2.23,7.7,7.7,0,0,1,2.23,10.61c-.88,1.33-3.16,2.5-6.6,3.36a9.53,9.53,0,0,0-5.7,4.05l-.92,1.43.76,1.51a9.58,9.58,0,0,0,5.22,4.66c3.33,1.23,5.46,2.63,6.19,4.06A7.67,7.67,0,0,1,58.93,68.19Z"/><path class="cls-1" d="M48,92.41A44.41,44.41,0,1,1,92.41,48,44.46,44.46,0,0,1,48,92.41ZM48,5.59A42.41,42.41,0,1,0,90.41,48,42.46,42.46,0,0,0,48,5.59Z"/></g></svg>