<?xml version="1.0" encoding="utf-8"?>
<!-- Generator: Adobe Illustrator 17.0.0, SVG Export Plug-In . SVG Version: 6.00 Build 0)  -->
<!DOCTYPE svg PUBLIC "-//W3C//DTD SVG 1.1//EN" "http://www.w3.org/Graphics/SVG/1.1/DTD/svg11.dtd">
<svg version="1.1" id="Layer_1" xmlns="http://www.w3.org/2000/svg" xmlns:xlink="http://www.w3.org/1999/xlink" x="0px" y="0px"
	 width="612px" height="792px" viewBox="0 0 612 792" enable-background="new 0 0 612 792" xml:space="preserve">
<title></title>
<g id="Your_Icons">
	<path fill="#FFFFFF" d="M362.164,421.5c-11.414-4.205-20.803-12.591-26.265-23.46l-1.594-3.124l1.912-2.869
		c6.623-10.211,16.877-17.526,28.688-20.464c25.5-6.375,42.203-15.427,49.661-26.839c18.66-28.466,10.711-66.669-17.754-85.329
		c-28.466-18.66-66.669-10.711-85.329,17.754c-7.523,11.411-9.052,30.345-4.654,56.227c2.083,11.994-0.494,24.331-7.204,34.489
		l-1.849,2.932h-3.443c-12.088-0.715-23.466-5.949-31.875-14.663c-18.233-19.125-34.425-28.815-48.004-29.58
		c-33.976-1.539-62.767,24.757-64.306,58.733c-1.518,33.514,24.07,62.077,57.548,64.241c13.451,0.765,30.727-7.331,51-24.098
		c9.374-7.796,21.361-11.738,33.533-11.029h3.443l1.594,3.06c5.484,10.873,6.689,23.407,3.379,35.126
		c-7.268,25.5-7.778,44.179-1.594,56.355c13.091,31.391,49.151,46.225,80.542,33.134c31.391-13.091,46.225-49.151,33.134-80.542
		c-1.179-2.827-2.567-5.562-4.153-8.182C402.39,441.199,386.771,430.361,362.164,421.5z M375.679,524.966
		c-24.051,12.13-53.383,2.524-65.599-21.484c-4.59-9.116-3.761-25.5,2.486-47.111c4.304-14.877,2.776-30.835-4.271-44.625
		l-4.909-9.371l-10.774-0.574h-3.379c-14.233-0.011-28.019,4.975-38.951,14.089c-17.404,14.408-31.875,21.739-42.139,21.165
		c-26.872-2.289-46.8-25.929-44.511-52.801c2.192-25.735,24.046-45.312,49.866-44.672c10.136,0.574,23.843,9.435,39.525,25.5
		c10.76,10.962,25.265,17.452,40.609,18.169l10.774,0.637l5.929-9.052c8.42-12.892,11.654-28.492,9.052-43.669
		c-3.761-22.313-2.805-38.569,2.741-47.111c14.779-22.522,44.975-28.874,67.575-14.216c22.498,14.824,28.843,45.012,14.216,67.639
		c-5.61,8.479-20.145,15.938-42.075,21.42c-14.946,3.691-27.934,12.919-36.338,25.819l-5.865,9.116l4.845,9.626
		c6.95,13.744,18.836,24.355,33.277,29.707c21.229,7.841,34.807,16.766,39.461,25.883c12.164,24.084,2.521,53.469-21.547,65.662
		V524.966z"/>
	<path fill="#FFFFFF" d="M306,679.114C149.641,679.114,22.886,552.359,22.886,396c0-156.359,126.754-283.114,283.114-283.114
		S589.114,239.641,589.114,396C588.938,552.287,462.287,678.938,306,679.114z M306,125.636
		C156.682,125.636,35.636,246.682,35.636,396S156.682,666.364,306,666.364S576.364,545.318,576.364,396
		C576.188,246.755,455.245,125.812,306,125.636z"/>
</g>
</svg>
